<svg width="16" height="16" viewBox="0 0 16 16" fill="none" xmlns="http://www.w3.org/2000/svg">
<path d="M0.820426 10.8719C0.367319 10.8719 0 10.5049 0 10.0515V5.94933C0 5.49623 0.367319 5.12891 0.820426 5.12891C1.27353 5.12891 1.64085 5.49623 1.64085 5.94933V10.0515C1.64085 10.5039 1.27353 10.8719 0.820426 10.8719Z" fill="#343A40"/>
<path d="M3.21398 12.9226C2.76087 12.9226 2.39355 12.5553 2.39355 12.1022V3.8966C2.39355 3.44349 2.76087 3.07617 3.21398 3.07617C3.66709 3.07617 4.03441 3.44349 4.03441 3.8966V12.1022C4.03475 12.5553 3.66709 12.9226 3.21398 12.9226Z" fill="#343A40"/>
<path d="M5.60656 11.8979C5.15345 11.8979 4.78613 11.5306 4.78613 11.0775V4.92394C4.78613 4.47083 5.15345 4.10352 5.60656 4.10352C6.05966 4.10352 6.42732 4.47083 6.42732 4.92394V11.0775C6.42698 11.5306 6.05966 11.8979 5.60656 11.8979Z" fill="#343A40"/>
<path d="M8.00011 13.9483C7.54701 13.9483 7.17969 13.5813 7.17969 13.1279V2.87121C7.17969 2.4181 7.54701 2.05078 8.00011 2.05078C8.45322 2.05078 8.82054 2.4181 8.82054 2.87121V13.1275C8.82054 13.581 8.45322 13.9483 8.00011 13.9483Z" fill="#343A40"/>
<path d="M10.3927 16C9.93993 16 9.57227 15.6327 9.57227 15.1796V0.820426C9.57227 0.367319 9.93993 0 10.3927 0C10.8461 0 11.2131 0.367319 11.2131 0.820426V15.1796C11.2131 15.6327 10.8461 16 10.3927 16Z" fill="#343A40"/>
<path d="M12.7862 12.9226C12.3328 12.9226 11.9658 12.5553 11.9658 12.1022V3.8966C11.9658 3.44349 12.3328 3.07617 12.7862 3.07617C13.239 3.07617 13.6067 3.44349 13.6067 3.8966V12.1022C13.6067 12.5553 13.239 12.9226 12.7862 12.9226Z" fill="#343A40"/>
<path d="M15.1798 9.84621C14.7267 9.84621 14.3594 9.47889 14.3594 9.02613V6.97472C14.3594 6.52162 14.7267 6.1543 15.1798 6.1543C15.6329 6.1543 16.0002 6.52162 16.0002 6.97472V9.02613C16.0002 9.47889 15.6329 9.84621 15.1798 9.84621Z" fill="#343A40"/>
</svg>
