<svg width="24" height="24" viewBox="0 0 24 24" fill="none" xmlns="http://www.w3.org/2000/svg">
<path d="M8.11133 4H15.5002L19.0002 7.5V17.2222" stroke="white" stroke-width="1.16667" stroke-linecap="round" stroke-linejoin="round"/>
<path d="M5 18.3889V7.50004C5 6.85571 5.52233 6.33337 6.16667 6.33337H13.7512C13.8749 6.33337 13.9936 6.38254 14.0811 6.47006L16.53 8.91891C16.6175 9.00643 16.6667 9.12513 16.6667 9.2489V18.3889C16.6667 19.0332 16.1443 19.5556 15.5 19.5556H6.16667C5.52233 19.5556 5 19.0332 5 18.3889Z" stroke="white" stroke-width="1.16667" stroke-linecap="round" stroke-linejoin="round"/>
<path d="M13.5557 8.97782V6.60836C13.5557 6.45649 13.6788 6.33337 13.8307 6.33337C13.9036 6.33337 13.9735 6.36235 14.0251 6.41391L16.5862 8.97506C16.6378 9.02662 16.6668 9.09657 16.6668 9.1695C16.6668 9.32137 16.5437 9.44449 16.3918 9.44449H14.0223C13.7646 9.44449 13.5557 9.23555 13.5557 8.97782Z" stroke="white" stroke-width="1.16667" stroke-linecap="round" stroke-linejoin="round"/>
</svg>
