<svg width="24" height="24" viewBox="0 0 24 24" fill="none" xmlns="http://www.w3.org/2000/svg">
<path d="M12.1447 10.4707H10.0234V12.2797H12.1447V10.4707Z" fill="#343A40"/>
<path d="M14.9772 10.4707H12.8564V12.2797H14.9772V10.4707Z" fill="#343A40"/>
<path d="M17.8078 10.4707H15.6865V12.2797H17.8078V10.4707Z" fill="#343A40"/>
<path d="M9.31315 12.8853H7.19238V14.6929H9.31315V12.8853Z" fill="#343A40"/>
<path d="M12.1447 12.8853H10.0234V14.6929H12.1447V12.8853Z" fill="#343A40"/>
<path d="M14.9772 12.8853H12.8564V14.6929H14.9772V12.8853Z" fill="#343A40"/>
<path d="M17.8078 12.8853H15.6865V14.6929H17.8078V12.8853Z" fill="#343A40"/>
<path d="M9.31315 15.2993H7.19238V17.107H9.31315V15.2993Z" fill="#343A40"/>
<path d="M12.1447 15.2993H10.0234V17.107H12.1447V15.2993Z" fill="#343A40"/>
<path d="M14.9772 15.2993H12.8564V17.107H14.9772V15.2993Z" fill="#343A40"/>
<path d="M17.8078 15.2993H15.6865V17.107H17.8078V15.2993Z" fill="#343A40"/>
<path d="M18.8462 18.245C18.8462 18.672 18.4838 19.0193 18.0385 19.0193H6.96154C6.51615 19.0193 6.15385 18.672 6.15385 18.245V9.35303H5V18.245C5 19.2816 5.88015 20.1253 6.96154 20.1253H18.0385C19.1203 20.1253 20 19.2816 20 18.245V9.35303H18.8462V18.245Z" fill="#343A40"/>
<path d="M18.0385 5.74664H17.5317V5.21663C17.5317 4.54549 16.9792 4 16.2994 4C15.6191 4 15.0671 4.54549 15.0671 5.21663V5.7462H13.8025V5.21663C13.8025 4.54549 13.25 4 12.5702 4C11.8903 4 11.3378 4.54549 11.3378 5.21663V5.7462H10.0732V5.21663C10.0732 4.54549 9.52077 4 8.84092 4C8.16108 4 7.60862 4.54549 7.60862 5.21663V5.7462H6.96154C5.88015 5.7462 5 6.58987 5 7.62644V8.51127H6.15385H18.8462H20V7.62644C20 6.59032 19.1203 5.74664 18.0385 5.74664ZM9.38092 7.38268C9.38092 7.6875 9.13862 7.93569 8.84092 7.93569C8.54323 7.93569 8.30092 7.6875 8.30092 7.38268V5.21663C8.30092 4.91181 8.54323 4.66362 8.84092 4.66362C9.13862 4.66362 9.38092 4.91181 9.38092 5.21663V7.38268ZM13.1102 7.38268C13.1102 7.6875 12.8678 7.93569 12.5702 7.93569C12.2725 7.93569 12.0302 7.6875 12.0302 7.38268V5.21663C12.0302 4.91181 12.2725 4.66362 12.5702 4.66362C12.8678 4.66362 13.1102 4.91181 13.1102 5.21663V7.38268ZM16.8394 7.38268C16.8394 7.6875 16.5971 7.93569 16.2994 7.93569C16.0012 7.93569 15.7594 7.6875 15.7594 7.38268V5.21663C15.7594 4.91181 16.0012 4.66362 16.2994 4.66362C16.5971 4.66362 16.8394 4.91181 16.8394 5.21663V7.38268Z" fill="#343A40"/>
</svg>
