<svg width="16" height="16" viewBox="0 0 16 16" fill="none" xmlns="http://www.w3.org/2000/svg">
<path d="M8 1.45463C9.29457 1.45463 10.5601 1.83851 11.6365 2.55774C12.7129 3.27696 13.5518 4.29922 14.0472 5.49525C14.5426 6.69127 14.6722 8.00734 14.4197 9.27704C14.1671 10.5467 13.5437 11.713 12.6283 12.6284C11.7129 13.5438 10.5467 14.1672 9.27696 14.4198C8.00726 14.6723 6.69119 14.5427 5.49517 14.0473C4.29914 13.5519 3.27688 12.7129 2.55766 11.6365C1.83843 10.5601 1.45455 9.29465 1.45455 8.00008C1.4641 6.26707 2.15677 4.60775 3.38222 3.3823C4.60767 2.15685 6.26699 1.46418 8 1.45463ZM8 8.34111e-05C6.41775 8.34111e-05 4.87104 0.469275 3.55544 1.34833C2.23985 2.22738 1.21447 3.47681 0.608967 4.93862C0.0034663 6.40042 -0.15496 8.00896 0.153721 9.56081C0.462403 11.1127 1.22433 12.5381 2.34315 13.6569C3.46197 14.7758 4.88743 15.5377 6.43928 15.8464C7.99113 16.155 9.59966 15.9966 11.0615 15.3911C12.5233 14.7856 13.7727 13.7602 14.6518 12.4446C15.5308 11.1291 16 9.58233 16 8.00008C16.0048 6.94816 15.8012 5.90571 15.4008 4.93293C15.0005 3.96015 14.4114 3.07632 13.6676 2.3325C12.9238 1.58867 12.0399 0.999574 11.0672 0.599241C10.0944 0.198909 9.05193 -0.00473096 8 8.34111e-05Z" fill="#343A40"/>
<path d="M11.6361 10.9094C11.5064 10.9121 11.3792 10.874 11.2725 10.8004L7.27246 8.40036V4.36399C7.27246 4.17111 7.34908 3.98612 7.48547 3.84973C7.62186 3.71334 7.80685 3.63672 7.99973 3.63672C8.19262 3.63672 8.3776 3.71334 8.51399 3.84973C8.65038 3.98612 8.72701 4.17111 8.72701 4.36399V7.60036L11.9997 9.56399C12.0836 9.60906 12.1573 9.67099 12.2162 9.7459C12.275 9.8208 12.3177 9.90707 12.3416 9.99926C12.3655 10.0915 12.3701 10.1876 12.3551 10.2817C12.34 10.3757 12.3057 10.4656 12.2543 10.5458C12.1944 10.6572 12.1051 10.75 11.9961 10.8141C11.8871 10.8782 11.7626 10.9112 11.6361 10.9094Z" fill="#343A40"/>
</svg>
