<svg width="24" height="24" viewBox="0 0 24 24" fill="none" xmlns="http://www.w3.org/2000/svg">
<path d="M5.77778 15.05H10.4444C10.4723 15.05 10.5029 15.0612 10.5284 15.0874C10.5544 15.1143 10.5722 15.1544 10.5722 15.2V19.2C10.5722 19.2456 10.5544 19.2858 10.5284 19.3126L10.9944 19.7657L10.5284 19.3126C10.5029 19.3388 10.4723 19.35 10.4444 19.35H5.77778C5.74989 19.35 5.71932 19.3388 5.69385 19.3126L5.22978 19.7638L5.69385 19.3126C5.66778 19.2858 5.65 19.2456 5.65 19.2V15.2C5.65 15.1544 5.66778 15.1143 5.69385 15.0874C5.71932 15.0612 5.74989 15.05 5.77778 15.05Z" stroke="white" stroke-width="1.3"/>
<path d="M5.77778 4.65H10.4444C10.4723 4.65 10.5029 4.66122 10.5284 4.68742C10.5544 4.71423 10.5722 4.7544 10.5722 4.8V12C10.5722 12.0456 10.5544 12.0858 10.5284 12.1126C10.5029 12.1388 10.4723 12.15 10.4444 12.15H5.77778C5.74989 12.15 5.71932 12.1388 5.69385 12.1126C5.66778 12.0858 5.65 12.0456 5.65 12V4.8C5.65 4.7544 5.66778 4.71423 5.69385 4.68742C5.71932 4.66122 5.74989 4.65 5.77778 4.65Z" stroke="white" stroke-width="1.3"/>
<path d="M13.5551 4.65H18.2218C18.2497 4.65 18.2803 4.66122 18.3057 4.68742C18.3318 4.71423 18.3496 4.7544 18.3496 4.8V8.8C18.3496 8.8456 18.3318 8.88577 18.3057 8.91258C18.2803 8.93878 18.2497 8.95 18.2218 8.95H13.5551C13.5272 8.95 13.4967 8.93878 13.4712 8.91258C13.4451 8.88577 13.4273 8.8456 13.4273 8.8V4.8C13.4273 4.7544 13.4451 4.71423 13.4712 4.68742C13.4967 4.66122 13.5272 4.65 13.5551 4.65Z" stroke="white" stroke-width="1.3"/>
<path d="M13.5551 11.85H18.2218C18.2497 11.85 18.2802 11.8612 18.3057 11.8874C18.3318 11.9142 18.3496 11.9544 18.3496 12V19.2C18.3496 19.2456 18.3318 19.2857 18.3057 19.3125C18.2803 19.3387 18.2497 19.35 18.2218 19.35H13.5551C13.5272 19.35 13.4967 19.3387 13.4712 19.3125C13.4451 19.2857 13.4273 19.2456 13.4273 19.2V12C13.4273 11.9544 13.4451 11.9142 13.4712 11.8874C13.4967 11.8612 13.5272 11.85 13.5551 11.85Z" stroke="white" stroke-width="1.3"/>
</svg>
