<svg width="24" height="24" viewBox="0 0 24 24" fill="none" xmlns="http://www.w3.org/2000/svg">
<path d="M12.6614 15.6007C12.5557 15.7162 12.4064 15.7821 12.2498 15.7821C12.0932 15.7821 11.9439 15.7162 11.8383 15.6007L8.86388 12.3475C8.65604 12.1202 8.67184 11.7674 8.89915 11.5596C9.12648 11.3517 9.47923 11.3675 9.68706 11.5948L11.6921 13.7879V5.55769C11.6921 5.24969 11.9418 5 12.2498 5C12.5578 5 12.8075 5.24969 12.8075 5.55769V13.7879L14.8126 11.5948C15.0204 11.3675 15.3732 11.3517 15.6005 11.5596C15.8278 11.7674 15.8436 12.1202 15.6358 12.3475L12.6614 15.6007Z" fill="#1C274C"/>
<path d="M6.11538 14.4808C6.11538 14.1728 5.8657 13.9231 5.55769 13.9231C5.24969 13.9231 5 14.1728 5 14.4808V14.5216C4.99999 15.5385 4.99997 16.3582 5.08664 17.0029C5.17663 17.6722 5.36914 18.2357 5.81672 18.6833C6.2643 19.1309 6.82785 19.3234 7.49716 19.4134C8.14183 19.5 8.9615 19.5 9.97843 19.5H14.5216C15.5385 19.5 16.3582 19.5 17.0029 19.4134C17.6722 19.3234 18.2357 19.1309 18.6833 18.6833C19.1309 18.2357 19.3234 17.6722 19.4134 17.0029C19.5 16.3582 19.5 15.5385 19.5 14.5216V14.4808C19.5 14.1728 19.2503 13.9231 18.9423 13.9231C18.6343 13.9231 18.3846 14.1728 18.3846 14.4808C18.3846 15.5481 18.3834 16.2925 18.308 16.8543C18.2346 17.3999 18.1004 17.6888 17.8946 17.8946C17.6888 18.1004 17.3999 18.2346 16.8542 18.308C16.2925 18.3834 15.5481 18.3846 14.4808 18.3846H10.0192C8.95187 18.3846 8.20745 18.3834 7.64578 18.308C7.10016 18.2346 6.81121 18.1004 6.60542 17.8946C6.39962 17.6888 6.26544 17.3999 6.19209 16.8543C6.11657 16.2925 6.11538 15.5481 6.11538 14.4808Z" fill="#1C274C"/>
</svg>
