<svg width="254" height="72" viewBox="0 0 254 72" fill="none" xmlns="http://www.w3.org/2000/svg">
<path d="M223.27 61.8975C222.143 63.289 220.658 62.6143 219.289 62.3698C215.088 61.6149 210.907 60.7589 206.718 59.9408C204.87 59.5782 204.305 58.9077 204.325 56.8119C204.365 52.9198 204.52 49.0276 204.536 45.1354C204.584 34.5426 204.584 23.9499 204.603 13.3571C204.607 10.7764 205.288 10.0047 207.685 9.67156C209.995 9.35108 212.296 8.99686 214.594 8.59626C216.617 8.24626 217.704 9.16975 217.708 11.3963C217.716 22.727 217.736 34.0577 217.688 45.3884C217.68 46.9023 217.891 47.6445 219.579 47.7204C221.176 47.792 223.071 47.6613 224.134 49.6728C224.274 48.3445 224.449 47.0204 224.553 45.6878C224.983 40.2481 225.357 34.7999 225.815 29.3601C226.472 21.5716 227.181 13.7872 227.873 6.00289C227.993 4.67457 228.714 3.91132 229.94 3.67096C234.519 2.77277 239.098 1.87879 243.677 0.976381C245.425 0.630597 246.477 1.32216 246.7 3.20289C247.233 7.7318 247.687 12.2691 248.161 16.8065C248.603 21.0318 249.033 25.2571 249.471 29.4824C249.925 33.8637 250.383 38.2451 250.841 42.6222C251.406 48.0451 251.984 53.4679 252.537 58.8908C252.792 61.3957 252.979 63.9089 253.25 66.4095C253.465 68.3999 251.828 69.6776 250.108 69.142C246.54 68.0288 242.921 67.1095 239.317 66.1312C238.019 65.777 237.39 64.9252 237.414 63.5125C237.422 63.0613 237.414 62.6101 237.243 62.1378C237.111 62.5722 237 63.0149 236.845 63.4366C236.371 64.7354 235.515 65.3511 234.177 65.039C231.222 64.3475 228.268 63.6812 225.325 62.9348C224.676 62.7704 224.095 62.3234 223.274 61.8975H223.27ZM239.031 52.7469C239.202 56.0234 239.405 59.1649 239.504 62.3149C239.54 63.3734 239.795 63.9258 240.866 64.1324C242.375 64.4234 243.849 64.942 245.342 65.3384C247.142 65.8192 248.949 66.2788 251.008 66.8143C248.818 45.4517 246.66 24.4011 244.494 3.24506C239.811 4.16433 235.315 5.02457 230.84 5.97336C230.489 6.04927 230.051 6.74083 230.012 7.17939C229.546 12.2101 229.152 17.2451 228.733 22.28C227.969 31.4601 227.2 40.636 226.44 49.8161C226.145 53.3667 225.859 56.9131 225.564 60.5354C228.654 61.286 231.596 61.9987 234.658 62.7451C234.885 59.3252 235.1 56.0529 235.319 52.7426H239.035L239.031 52.7469ZM206.857 57.5836C211.671 58.4776 216.541 59.38 221.502 60.2993V50.3728C220.041 50.1703 218.624 49.892 217.194 49.7993C215.904 49.7149 215.466 49.23 215.474 47.7752C215.538 36.1282 215.51 24.477 215.51 12.83C215.51 12.227 215.51 11.624 215.51 10.9071C212.527 11.3667 209.792 11.7884 206.857 12.2396V57.5836Z" fill="#BDBFC8"/>
<path d="M100.642 35.9224C96.4846 33.7971 94.43 30.2381 94.3225 25.8104C92.3913 25.9622 90.5158 26.1055 88.5209 26.2616V28.2857C89.584 28.2857 90.6591 28.2646 91.7342 28.2899C93.0841 28.3236 93.9999 29.1839 94.0437 30.6176C94.1114 32.8272 94.0875 35.0453 94.0517 37.2549C94.0238 38.8405 92.9567 39.3887 91.6944 39.6122C91.1609 39.7049 90.5915 39.7049 90.0579 39.6206C88.6443 39.3971 88.2183 40.0465 88.3417 41.4718C88.4094 42.2688 88.6204 42.6146 89.4009 42.5851C90.4959 42.5429 91.5909 42.5513 92.6859 42.5851C94.4658 42.6399 95.2741 43.5212 95.2861 45.4019C95.298 47.4049 95.306 49.408 95.2821 51.4067C95.2622 52.8447 94.4578 53.7893 93.108 53.8947C90.042 54.1308 86.9719 54.3375 83.9019 54.5104C81.2739 54.658 78.6459 54.7802 76.0139 54.8477C74.4052 54.8899 73.5013 53.9748 73.4974 52.2585C73.4774 40.1941 73.4774 28.1254 73.4974 16.061C73.4974 14.3742 74.449 13.379 76.0577 13.4887C80.2625 13.7839 84.4554 14.1929 88.6563 14.5471C89.6438 14.6314 90.6353 14.6905 91.6307 14.7284C93.6933 14.8128 94.633 15.7953 94.6529 17.9459C94.6649 19.2869 94.6529 20.6278 94.6529 22.4495C96.9266 17.1742 100.92 15.6435 105.503 14.9899C109.187 14.467 112.727 14.9351 116.179 16.2592C120.798 18.0302 122.904 22.4327 122.335 27.5941C122.164 29.1501 121.3 29.8248 119.747 29.8543C118.357 29.8796 116.963 29.8586 115.136 29.8586C116.39 30.6977 117.278 31.4146 118.261 31.9333C121.216 33.4851 122.904 36.0531 123.434 39.3887C124.242 44.4616 123.203 49.0917 119.022 51.4573C117.194 52.4905 115.016 52.9965 112.942 53.3381C109.438 53.9116 105.886 53.7345 102.461 52.7393C98.0415 51.4531 95.8833 48.417 95.5966 43.4074C95.521 42.0959 95.5369 40.7718 95.5767 39.4561C95.6285 37.7525 96.5045 36.8881 98.1092 36.8586C98.9534 36.8417 99.8015 36.8375 100.646 36.829C100.988 36.7995 101.327 36.7658 102.055 36.7025C101.331 36.2935 100.988 36.1037 100.646 35.9098L100.642 35.9224ZM119.882 27.379C120.559 23.0062 118.799 19.6369 115.056 18.3676C110.783 16.917 106.443 16.7947 102.135 18.22C99.2918 19.1604 97.1575 20.961 96.7633 24.3049C96.3293 28.0031 97.3725 31.0815 100.526 33.0802C102.063 34.0543 103.696 34.8682 105.165 35.9393C106.997 37.276 108.773 38.7266 110.449 40.2784C111.771 41.5013 111.759 43.2555 111.194 44.82C110.931 45.5411 109.975 46.3929 109.302 46.4182C108.621 46.4435 107.813 45.6254 107.248 44.9887C106.929 44.6302 106.925 43.9049 106.877 43.3357C106.774 42.0411 106.734 40.7423 106.666 39.4013H97.7668C97.8782 41.1935 97.93 42.8676 98.1012 44.5248C98.4158 47.5694 99.9647 49.5598 102.792 50.361C107.574 51.7188 112.352 51.6977 116.983 49.8128C118.241 49.3025 119.52 48.1893 120.244 46.9833C122.805 42.7031 121.276 36.6308 117.17 34.0543C114.391 32.3086 111.6 30.5754 108.777 28.914C107.148 27.9525 106.376 26.5947 106.63 24.6381C106.778 23.5164 107.005 22.3778 108.394 22.3146C109.517 22.264 110.373 23.2845 110.441 24.7477C110.481 25.6164 110.449 26.4893 110.449 27.3748H119.886L119.882 27.379ZM75.9064 15.9513V52.5074C81.704 52.1658 87.3502 51.8369 93.0602 51.4995V45.0688H86.1716V37.1284H91.7223V30.6092H86.2473V23.7821H92.236V17.229C86.7689 16.7989 81.3814 16.3772 75.9024 15.9513H75.9064Z" fill="#BDBFC8"/>
<path d="M16.1706 31.6052V37.4625C18.7866 37.4625 21.3629 37.4583 23.9392 37.4625C28.2356 37.4751 28.4387 37.6143 28.3391 42.1727C28.2595 45.892 28.2714 49.6577 27.714 53.3137C26.38 62.1227 19.0534 68.1739 10.6079 67.8071C5.04925 67.5667 0.7807 63.2908 0.649299 57.5263C0.374551 45.7992 0.151569 34.0679 0.087859 22.3408C0.0639679 18.4191 0.338716 14.451 0.916085 10.5799C1.78811 4.73115 6.05666 1.21851 11.7029 1.48839C16.2621 1.70766 20.3555 3.34802 23.5489 6.94923C26.1889 9.92633 27.6622 13.5697 28.0126 17.5715C28.355 21.489 28.2913 25.4444 28.3511 29.3872C28.371 30.8293 27.491 31.7318 26.1371 31.795C23.8555 31.9046 21.5779 32.0269 19.2963 32.0354C18.2969 32.0354 17.2934 31.7655 16.1745 31.601L16.1706 31.6052ZM25.95 29.4631C25.95 25.7396 26.2725 22.0878 25.8823 18.5203C25.1058 11.4486 21.8009 6.29561 14.9242 4.38537C9.00721 2.74079 3.2176 5.05586 2.89108 12.6251C2.52874 20.9872 2.20222 29.3619 2.19426 37.7324C2.1863 44.3613 2.56855 50.9986 3.00258 57.6149C3.30918 62.3251 6.45484 65.2348 10.9185 65.4034C17.393 65.648 22.876 61.5787 24.9784 55.1143C26.5114 50.3998 26.1332 45.542 26.1451 40.7137C26.1451 40.4101 25.6792 39.845 25.4164 39.8408C22.9955 39.7733 20.5705 39.7986 18.0619 39.7986C18.0341 40.4016 17.9982 40.9161 17.9943 41.4306C17.9783 44.7492 17.9903 48.0721 17.9465 51.3908C17.9345 52.1709 17.8071 52.9637 17.6239 53.7185C17.3691 54.7601 16.6364 55.5065 15.6609 55.1396C15.0118 54.895 14.4862 54.0601 14.092 53.3727C13.8651 52.9763 13.9885 52.3438 13.9885 51.8209C13.9885 40.3848 13.9885 28.9486 13.9885 17.5125C13.9885 15.0962 14.4862 14.1348 15.7565 14.0673C17.1262 13.9914 17.8907 15.1257 17.9345 17.5589C17.9982 20.983 17.9783 24.4113 17.9943 27.8354C17.9943 28.3878 17.9943 28.9402 17.9943 29.4631H25.958H25.95Z" fill="#BDBFC8"/>
<path d="M189.098 33.8514V37.8195C190.034 37.6002 190.993 37.2123 191.961 37.187C194.995 37.1026 198.033 37.1954 201.067 37.1406C202.449 37.1153 203.401 37.7436 203.492 39.1267C203.783 43.6008 203.926 48.1045 201.728 52.1906C199.714 55.9394 196.564 58.0183 192.53 58.2713C189.966 58.4316 187.346 58.3641 184.806 57.9846C179.828 57.2466 175.89 52.9412 175.353 47.6364C175.014 44.3008 175.038 40.9147 174.998 37.5539C174.946 33.4045 175.13 29.2508 174.978 25.1057C174.716 17.9539 178.311 14.1207 183.981 12.1599C188.994 10.4268 193.828 11.2828 198.364 13.8761C201.426 15.6261 202.959 18.6876 203.309 22.2551C203.608 25.2786 203.58 28.3442 203.6 31.393C203.612 33.5394 202.788 34.3322 200.801 34.3364C198.013 34.3406 195.226 34.3743 192.439 34.3069C191.344 34.2816 190.249 34.0159 189.094 33.8557L189.098 33.8514ZM201.243 31.9792C201.243 28.9472 201.414 26.0418 201.199 23.1701C200.944 19.7966 199.542 17.0388 196.48 15.4743C191.089 12.7123 185.885 13.1255 180.891 16.5117C178.721 17.9834 177.395 20.134 177.383 22.9424C177.348 30.5243 177.292 38.1105 177.407 45.6924C177.491 50.9002 180.676 54.978 185.355 55.6906C187.979 56.0912 190.723 56.0322 193.367 55.7243C196.62 55.3448 198.842 53.1858 200.211 50.0484C201.669 46.7045 201.282 43.1707 201.306 39.5822H191.121C191.121 40.4804 191.145 41.2647 191.117 42.0406C191.041 44.0352 191.085 46.0551 190.762 48.0033C190.651 48.6822 189.592 49.6563 188.979 49.6436C188.242 49.6267 187.306 48.8551 186.856 48.1298C186.438 47.4508 186.434 46.4093 186.434 45.528C186.426 38.2033 186.458 30.8786 186.486 23.5581C186.486 23.0858 186.534 22.6093 186.601 22.1454C186.769 20.9984 187.457 20.3701 188.513 20.2689C189.632 20.1635 190.472 20.7033 190.802 21.8502C191.001 22.5418 191.065 23.2966 191.073 24.0261C191.105 26.6448 191.085 29.2593 191.085 31.9792H201.239H201.243Z" fill="#BDBFC8"/>
<path d="M58.2228 50.4995C58.2228 52.026 58.2307 53.5525 58.2228 55.0748C58.2108 56.5507 57.5259 57.4573 56.1402 57.6977C53.1618 58.2122 50.1794 58.7139 47.193 59.1905C46.0104 59.3802 44.7601 58.2923 44.5531 56.9386C44.4893 56.5254 44.5252 56.0995 44.5252 55.6778C44.5252 41.2477 44.5252 26.8176 44.5252 12.3875C44.5252 9.48625 45.445 8.63023 48.1447 9.00975C50.5497 9.3471 52.9548 9.68866 55.3598 10.0176C56.7694 10.2116 57.721 10.9369 58.175 12.4296C58.6687 14.0573 59.274 15.6471 60.0464 17.2073C60.0464 16.0688 60.0186 14.9302 60.0544 13.7959C60.0942 12.3495 60.8189 11.4344 62.1966 11.5483C65.1074 11.7887 68.0101 12.1387 70.9089 12.535C72.0477 12.6911 72.5853 13.5682 72.5933 14.7826C72.6729 27.5218 72.7645 40.2567 72.8242 52.9959C72.8322 54.5055 71.8526 55.6314 70.467 55.7706C67.9026 56.032 65.3304 56.1923 62.7661 56.4495C61.2251 56.6055 60.3331 55.876 59.8474 54.3832C59.4173 53.0549 58.9315 51.7519 58.4696 50.4362C58.39 50.4573 58.3104 50.4784 58.2347 50.4995H58.2228ZM46.9422 56.7278C49.614 56.3061 52.1106 55.8423 54.6271 55.5513C55.758 55.4206 55.9889 54.9103 55.981 53.8266C55.9372 48.7664 55.9611 43.7103 55.965 38.6501C55.965 38.2115 56.0208 37.773 56.0845 36.8706C56.3592 37.5495 56.4628 37.7772 56.5464 38.0091C58.2825 42.9429 59.9987 47.885 61.7746 52.7977C61.9458 53.2742 62.5192 53.9489 62.8775 53.9278C65.3901 53.7971 67.8947 53.5061 70.467 53.2615C70.467 47.6615 70.4709 42.2387 70.467 36.82C70.459 29.9676 70.455 23.1194 70.3913 16.267C70.3873 15.7441 69.9732 14.829 69.6427 14.77C67.2655 14.3609 64.8605 14.1248 62.2763 13.8128V30.267C61.894 29.976 61.7427 29.664 61.6312 29.335C59.8155 24.1525 58.0237 18.9616 56.1761 13.7917C55.9969 13.2856 55.543 12.6067 55.1328 12.5266C52.4491 12.0248 49.7454 11.6706 46.9461 11.2489V56.7109L46.9422 56.7278Z" fill="#BDBFC8"/>
<path d="M171.933 34.6173C173.629 36.38 173.836 38.9523 173.78 41.6469C173.713 44.8601 173.776 48.0734 173.76 51.2908C173.748 53.9812 172.797 54.8288 170.28 54.5884C167.565 54.327 164.829 54.2511 162.125 53.9095C157.817 53.3613 153.497 53.3571 149.173 53.2474C147.066 53.1926 146.314 52.3703 146.314 50.1776C146.31 40.0065 146.31 29.8396 146.314 19.6685C146.314 17.6318 147.054 16.742 148.93 16.6535C154.285 16.4089 159.645 16.139 165.004 16.0125C169.651 15.9029 172.43 18.2137 173.326 23.0209C173.717 25.1125 173.908 27.3306 173.697 29.439C173.526 31.13 172.61 32.7324 171.933 34.6258V34.6173ZM167.238 34.0523C167.772 33.8035 168.222 33.6179 168.652 33.3818C170.189 32.5426 171.391 31.3788 171.459 29.4221C171.515 27.7438 171.539 26.036 171.339 24.3746C170.818 20.0649 168.795 18.2685 164.718 18.395C160.692 18.5173 156.666 18.6944 152.641 18.8842C151.275 18.9475 149.909 19.1161 148.559 19.2384V50.7468C151.693 50.8987 154.747 51.042 158.008 51.1981V36.4053C160.298 36.1227 161.313 36.9956 161.345 39.239C161.393 42.874 161.337 46.5089 161.397 50.1438C161.405 50.633 161.811 51.5017 162.098 51.5312C165.144 51.8559 168.206 52.0414 171.391 52.2776C171.391 47.6306 171.531 43.1059 171.296 38.6023C171.236 37.4553 170.057 36.3041 169.233 35.3047C168.779 34.7523 167.995 34.5077 167.242 34.0565L167.238 34.0523Z" fill="#BDBFC8"/>
<path d="M29.0195 34.5119C29.0195 26.133 29.0195 17.7583 29.0195 9.37937C29.0195 6.61732 30.0548 5.69805 32.6271 6.17456C35.4582 6.69745 38.2853 7.22877 41.1124 7.76853C42.8764 8.10588 43.5692 8.96612 43.5692 10.9185C43.5772 26.6179 43.5772 42.3173 43.5692 58.0167C43.5692 59.7752 42.9481 60.589 41.2956 60.9727C38.4884 61.6221 35.6732 62.2294 32.8541 62.8239C29.9393 63.4396 29.0195 62.6258 29.0195 59.48C29.0195 52.1047 29.0195 44.7294 29.0195 37.3541C29.0195 36.4053 29.0195 35.4565 29.0195 34.5077V34.5119ZM31.4405 60.7071C34.2636 60.0998 36.9753 59.4631 39.7068 58.9444C40.8815 58.7209 41.2956 58.2529 41.2916 56.8908C41.2319 41.9209 41.2558 26.9511 41.2558 11.9812C41.2558 11.6649 41.3473 11.2981 41.2279 11.045C41.0607 10.6866 40.774 10.1932 40.4713 10.13C37.5049 9.50166 34.5225 8.94925 31.4445 8.35468V60.7071H31.4405Z" fill="#BDBFC8"/>
<path d="M123.943 34.3817C123.943 29.4269 123.939 24.4763 123.943 19.5215C123.943 17.198 124.712 16.3504 126.878 16.342C131.903 16.3209 136.928 16.3209 141.957 16.342C143.856 16.3504 144.776 17.3498 144.808 19.3655C144.832 21.1028 144.832 22.8444 144.808 24.5817C144.78 26.4161 143.956 27.2932 142.248 27.3354C141.304 27.3607 140.352 27.2805 139.417 27.3775C139.102 27.4113 138.827 27.854 138.533 28.1113C138.815 28.3811 139.066 28.8366 139.381 28.8872C140.11 29.0052 140.87 28.9209 141.615 28.9293C143.506 28.9504 144.298 29.5956 144.446 31.5902C144.577 33.3697 144.561 35.1745 144.454 36.9582C144.35 38.6745 143.383 39.5263 141.678 39.6317C140.986 39.6739 140.249 39.5094 139.604 39.6992C139.226 39.8088 138.979 40.4329 138.676 40.8251C138.991 41.0697 139.289 41.4956 139.62 41.5209C140.759 41.6094 141.905 41.5378 143.052 41.5673C144.585 41.6052 145.358 42.3432 145.413 43.9751C145.481 45.9233 145.469 47.8757 145.417 49.8239C145.377 51.3546 144.509 52.3076 143.072 52.3203C137.497 52.354 131.927 52.3582 126.352 52.3203C124.791 52.3119 123.967 51.3167 123.959 49.554C123.939 44.4938 123.951 39.4378 123.951 34.3775L123.943 34.3817ZM126.328 49.8113H143.004V43.7685H136.538V37.1101H142.009V31.1896H136.211V24.8685H142.407V18.9396H126.324V49.807L126.328 49.8113Z" fill="#BDBFC8"/>
<path d="M128.785 59.3866C131.318 59.1926 131.326 59.1884 132.126 61.5582C132.819 63.6161 133.492 65.6823 134.527 67.7823C135.232 65.6402 135.945 63.498 136.641 61.3516C137.138 59.8279 138.222 59.1982 139.895 59.4625V70.8902C139.361 70.9155 138.843 70.945 138.174 70.9787V63.2028C138.039 63.1649 137.908 63.1269 137.772 63.0848C137.573 63.654 137.37 64.2233 137.179 64.7968C136.602 66.5342 136.072 68.2884 135.423 69.992C135.268 70.4052 134.718 70.8902 134.344 70.8986C133.966 70.9071 133.368 70.4474 133.221 70.0468C132.365 67.7149 131.608 65.3366 130.577 63.0131V70.8902C129.936 70.9239 129.418 70.9492 128.781 70.9829V59.3824L128.785 59.3866Z" fill="#B10545"/>
<path d="M117.357 70.8264C115.991 71.2691 115.191 70.8264 114.53 69.5402C113.395 67.3264 112.073 65.2221 110.536 63.101V70.8812H108.673V59.4872C110.051 58.9474 110.863 59.4492 111.552 60.7733C112.718 63.0125 114.056 65.1505 115.561 67.748V59.4113H117.353V70.8306L117.357 70.8264Z" fill="#B10545"/>
<path d="M126.01 70.9083H119.723V59.4131H126.03V61.1715H121.674V64.0601H126.03C126.07 64.6504 126.102 65.1396 126.145 65.8143H121.694V69.0613H126.01V70.9125V70.9083Z" fill="#B10545"/>
<path d="M151.815 70.7884C150.426 71.2059 149.47 71.0667 149.283 69.4727C149.124 68.0812 148.339 67.6721 147.121 67.8619C146.782 67.9167 146.42 67.9209 146.082 67.8619C144.911 67.6553 144.194 68.0812 143.983 69.3757C143.756 70.78 143.02 71.3492 141.526 70.7715C142.836 67.1155 144.111 63.4468 145.48 59.8119C145.815 58.9263 147.539 59.0528 147.881 59.9721C149.207 63.5227 150.478 67.0986 151.811 70.7884H151.815ZM146.83 61.8275L146.48 61.8022C146.01 63.2444 145.544 64.6824 145.046 66.2089H148.204C147.722 64.6739 147.276 63.2486 146.83 61.8275Z" fill="#B10545"/>
<path d="M154.018 70.7632C154.066 70.0885 154.098 69.6415 154.13 69.1524C154.998 69.2831 155.822 69.6247 156.539 69.4518C157.26 69.2789 158.251 68.7096 158.414 68.0982C158.566 67.5289 157.913 66.5421 157.383 65.9897C156.838 65.4247 155.993 65.197 155.313 64.7711C154.17 64.0542 153.628 62.9789 153.875 61.5789C154.122 60.1831 154.998 59.3439 156.28 59.1036C157.049 58.9602 157.865 59.0024 158.653 59.0614C159.736 59.1373 160.031 59.7319 159.49 60.7482C158.701 60.6765 157.897 60.4488 157.148 60.5837C156.603 60.6807 155.842 61.153 155.711 61.6253C155.587 62.0722 156.037 62.8777 156.447 63.2698C156.985 63.7801 157.745 64.0204 158.395 64.4042C159.9 65.2855 160.596 66.7614 160.274 68.3301C159.932 69.9873 158.86 70.9235 157.021 70.9909C156.053 71.0247 155.078 70.856 154.018 70.7716V70.7632Z" fill="#B10545"/>
<path d="M102.784 61.1216C100.16 60.2655 98.0935 60.1053 96.648 62.2601C95.5132 63.9511 95.4814 65.836 96.5405 67.5945C97.9461 69.9264 100.08 69.7366 102.254 69.1463C102.8 70.4451 102.35 70.93 101.175 71.0017C98.8062 71.1493 96.5286 70.9848 95.0911 68.6234C93.7851 66.4728 93.6776 64.1788 94.8283 61.889C96.0229 59.5149 99.5548 58.1529 101.816 59.2661C102.199 59.4559 102.33 60.2234 102.776 61.1216H102.784Z" fill="#B10545"/>
<path d="M106.299 59.29V70.878H104.571V59.387C105.085 59.3575 105.603 59.328 106.299 59.29Z" fill="#B10545"/>
<path d="M239.03 52.7459H235.315C235.096 56.0561 234.881 59.3284 234.654 62.7483C231.592 62.0061 228.649 61.2892 225.56 60.5386C225.854 56.9206 226.141 53.37 226.436 49.8194C227.2 40.6392 227.969 31.4633 228.729 22.2832C229.147 17.2483 229.541 12.2091 230.007 7.18263C230.047 6.73986 230.489 6.04829 230.836 5.9766C235.311 5.02781 239.807 4.16757 244.489 3.24829C246.659 24.4043 248.814 45.4549 251.004 66.8176C248.945 66.282 247.137 65.8224 245.337 65.3416C243.844 64.941 242.371 64.4266 240.862 64.1356C239.791 63.929 239.532 63.3766 239.5 62.3182C239.4 59.1682 239.197 56.0266 239.026 52.7501L239.03 52.7459ZM237.422 24.3537C237.218 24.3621 237.019 24.3706 236.816 24.379C236.49 30.2531 236.167 36.1314 235.833 42.17C236.82 42.1236 237.537 42.0898 238.433 42.0477C238.09 36.0471 237.756 30.2025 237.422 24.3579V24.3537Z" fill="#B10545"/>
<path d="M206.858 57.5835V12.2395C209.793 11.7883 212.529 11.3666 215.511 10.907C215.511 11.6238 215.511 12.2269 215.511 12.8299C215.511 24.4769 215.539 36.1281 215.475 47.7751C215.467 49.2257 215.905 49.7148 217.195 49.7991C218.625 49.8919 220.042 50.1702 221.504 50.3726V60.2991C216.538 59.3799 211.672 58.4775 206.858 57.5835Z" fill="#B10545"/>
<path d="M119.882 27.3767H110.445C110.445 26.4869 110.477 25.6183 110.437 24.7496C110.369 23.2863 109.513 22.2659 108.39 22.3165C107.001 22.3797 106.774 23.5183 106.626 24.64C106.371 26.5924 107.144 27.9544 108.773 28.9159C111.596 30.5815 114.387 32.3104 117.166 34.0562C121.272 36.6327 122.801 42.7092 120.24 46.9851C119.52 48.1912 118.237 49.3044 116.979 49.8147C112.348 51.6954 107.57 51.7207 102.788 50.3628C99.9607 49.5616 98.4117 47.5713 98.0971 44.5267C97.9259 42.8695 97.8742 41.1954 97.7627 39.4032H106.662C106.73 40.7442 106.77 42.043 106.873 43.3375C106.917 43.9068 106.921 44.6321 107.243 44.9906C107.809 45.6231 108.617 46.4454 109.298 46.4201C109.967 46.3948 110.927 45.543 111.189 44.8219C111.755 43.2616 111.767 41.5032 110.445 40.2803C108.769 38.7285 106.993 37.2779 105.161 35.9412C103.692 34.8701 102.059 34.052 100.522 33.0821C97.3645 31.0833 96.3212 28.0008 96.7592 24.3068C97.1534 20.9628 99.2877 19.1622 102.131 18.2219C106.439 16.7966 110.783 16.9189 115.052 18.3695C118.799 19.6388 120.555 23.008 119.878 27.3809L119.882 27.3767Z" fill="#B10545"/>
<path d="M75.9062 15.9502C81.3853 16.3803 86.7687 16.802 92.2398 17.2279V23.7809H86.2511V30.608H91.7261V37.1273H86.1755V45.0677H93.0641V51.4984C87.3541 51.8315 81.7078 52.1647 75.9102 52.5062V15.9502H75.9062Z" fill="#B10545"/>
<path d="M25.9498 29.465H17.9861C17.9861 28.9421 17.9861 28.3897 17.9861 27.8373C17.9701 24.4132 17.994 20.9849 17.9263 17.5608C17.8785 15.1277 17.114 13.9933 15.7483 14.0692C14.478 14.1367 13.9803 15.0982 13.9803 17.5144C13.9803 28.9506 13.9803 40.3867 13.9803 51.8229C13.9803 52.35 13.8569 52.9825 14.0838 53.3747C14.478 54.062 15.0076 54.897 15.6527 55.1415C16.6282 55.5084 17.3609 54.762 17.6157 53.7204C17.7989 52.9656 17.9263 52.1686 17.9383 51.3927C17.9821 48.0741 17.9701 44.7512 17.9861 41.4325C17.9861 40.918 18.0259 40.4036 18.0538 39.8006C20.5663 39.8006 22.9873 39.771 25.4082 39.8427C25.671 39.8512 26.1369 40.412 26.1369 40.7156C26.125 45.5482 26.4993 50.406 24.9702 55.1162C22.8718 61.5807 17.3848 65.65 10.9103 65.4054C6.45063 65.2367 3.30098 62.3271 2.99438 57.6168C2.56434 51.0006 2.18208 44.3632 2.18607 37.7343C2.19403 29.3638 2.52054 20.9891 2.88289 12.6271C3.2094 5.0578 8.99902 2.74696 14.9161 4.38732C21.7927 6.29756 25.0976 11.4506 25.8741 18.5223C26.2643 22.0855 25.9418 25.7373 25.9418 29.465H25.9498Z" fill="#B10545"/>
<path d="M201.243 31.9781H191.089C191.089 29.2582 191.109 26.6395 191.077 24.025C191.069 23.2955 191.005 22.5407 190.806 21.8491C190.476 20.7022 189.636 20.1582 188.517 20.2678C187.461 20.369 186.777 20.9973 186.605 22.1443C186.538 22.6124 186.49 23.0847 186.49 23.557C186.462 30.8817 186.43 38.2064 186.438 45.5269C186.438 46.4082 186.438 47.4497 186.86 48.1287C187.31 48.854 188.246 49.6257 188.983 49.6425C189.592 49.6552 190.655 48.6811 190.766 48.0022C191.089 46.054 191.041 44.0299 191.121 42.0395C191.153 41.2636 191.125 40.4793 191.125 39.5811H201.31C201.282 43.1696 201.673 46.6991 200.215 50.0473C198.846 53.1847 196.62 55.3395 193.371 55.7232C190.727 56.0311 187.983 56.0901 185.359 55.6895C180.68 54.9769 177.495 50.8991 177.411 45.6913C177.292 38.1094 177.352 30.5232 177.387 22.9413C177.399 20.1329 178.725 17.9823 180.895 16.5106C185.889 13.1244 191.093 12.7112 196.484 15.4732C199.546 17.0419 200.948 19.7997 201.203 23.169C201.422 26.0407 201.247 28.9461 201.247 31.9781H201.243Z" fill="#B10545"/>
<path d="M46.9415 56.7279V11.2659C49.7367 11.6833 52.4444 12.0418 55.1282 12.5436C55.5423 12.6195 55.9922 13.3026 56.1714 13.8086C58.019 18.9785 59.8148 24.1695 61.6266 29.352C61.742 29.6809 61.8933 29.993 62.2716 30.2839V13.8297C64.8558 14.1418 67.2609 14.3779 69.638 14.787C69.9646 14.8418 70.3787 15.7611 70.3866 16.2839C70.4503 23.1364 70.4543 29.9846 70.4623 36.837C70.4702 42.2556 70.4623 47.6785 70.4623 53.2785C67.886 53.5231 65.3854 53.8141 62.8729 53.9448C62.5145 53.9616 61.9411 53.287 61.7699 52.8147C59.994 47.8978 58.2778 42.9598 56.5417 38.0261C56.4581 37.79 56.3546 37.5623 56.0798 36.8876C56.0161 37.79 55.9604 38.2285 55.9604 38.6671C55.9524 43.7273 55.9325 48.7876 55.9763 53.8436C55.9843 54.9273 55.7533 55.4376 54.6225 55.5683C52.1059 55.8592 49.6093 56.3231 46.9375 56.7448L46.9415 56.7279Z" fill="#B10545"/>
<path d="M167.238 34.0511C167.99 34.5065 168.775 34.7469 169.228 35.2993C170.053 36.2987 171.231 37.4499 171.291 38.5969C171.53 43.1005 171.387 47.6209 171.387 52.2722C168.201 52.036 165.143 51.8463 162.093 51.5258C161.806 51.4963 161.4 50.6234 161.392 50.1384C161.332 46.5035 161.392 42.8685 161.34 39.2336C161.309 36.9902 160.293 36.1173 158.004 36.3999V51.1926C154.742 51.0366 151.688 50.889 148.555 50.7414V19.233C149.905 19.1149 151.266 18.942 152.636 18.8788C156.662 18.689 160.683 18.5119 164.713 18.3896C168.794 18.2673 170.817 20.0595 171.335 24.3691C171.534 26.0306 171.514 27.7342 171.454 29.4167C171.387 31.3734 170.184 32.5372 168.647 33.3764C168.217 33.6125 167.767 33.7981 167.234 34.0469L167.238 34.0511ZM158.047 31.192C159.461 31.4366 160.365 31.095 160.946 30.1462C161.774 28.7926 161.731 25.8408 160.819 24.5884C160.122 23.6354 159.206 23.3065 158.051 23.686V31.192H158.047Z" fill="#B10545"/>
<path d="M31.4405 60.7079V8.35547C34.5185 8.95005 37.5009 9.50245 40.4674 10.1308C40.774 10.194 41.0567 10.6874 41.2239 11.0458C41.3434 11.2988 41.2518 11.6657 41.2518 11.982C41.2518 26.9518 41.2319 41.9217 41.2876 56.8916C41.2916 58.2537 40.8775 58.7217 39.7029 58.9452C36.9713 59.4639 34.2597 60.0964 31.4365 60.7079H31.4405Z" fill="#B10545"/>
<path d="M126.328 49.8116V18.9441H142.411V24.873H136.215V31.1941H142.013V37.1146H136.542V43.773H143.008V49.8158H126.332L126.328 49.8116Z" fill="#B10545"/>
<path d="M237.422 24.3529C237.757 30.1974 238.091 36.0462 238.434 42.0426C237.538 42.0848 236.821 42.1185 235.833 42.1649C236.168 36.1263 236.494 30.2522 236.817 24.3739C237.02 24.3655 237.219 24.3571 237.422 24.3486V24.3529Z" fill="#BDBFC8"/>
<path d="M158.048 31.1934V23.6873C159.207 23.3078 160.122 23.6367 160.815 24.5898C161.727 25.8422 161.771 28.794 160.943 30.1476C160.365 31.0964 159.458 31.438 158.044 31.1934H158.048Z" fill="#BDBFC8"/>
</svg>
