<svg width="24" height="24" viewBox="0 0 24 24" fill="none" xmlns="http://www.w3.org/2000/svg">
<path d="M17.8571 13.5714V12.5C17.8571 11.9083 17.3775 11.4286 16.7857 11.4286H6.07143C5.47969 11.4286 5 11.9083 5 12.5V18.9286C5 19.5203 5.47969 20 6.07143 20H16.7857C17.3775 20 17.8571 19.5203 17.8571 18.9286V17.8571M17.8571 13.5714H13.5714C12.388 13.5714 11.4286 14.5308 11.4286 15.7143C11.4286 16.8978 12.388 17.8571 13.5714 17.8571H17.8571M17.8571 13.5714C19.0406 13.5714 20 14.5308 20 15.7143C20 16.8978 19.0406 17.8571 17.8571 17.8571M8.21429 11.4286V8.21429C8.21429 6.43909 9.65337 5 11.4286 5C13.2038 5 14.6429 6.43909 14.6429 8.21429V11.4286M17.3214 15.7143H18.3929M15.1786 15.7143H16.25M13.0357 15.7143H14.1071" stroke="black" stroke-width="1.15"/>
</svg>
