<svg width="24" height="24" viewBox="0 0 24 24" fill="none" xmlns="http://www.w3.org/2000/svg">
<path d="M8.11133 4H15.5002L19.0002 7.5V17.2222" stroke="black" stroke-width="1.16667" stroke-linecap="round" stroke-linejoin="round"/>
<path d="M5 18.3891V7.50016C5 6.85583 5.52233 6.3335 6.16667 6.3335H13.7512C13.8749 6.3335 13.9936 6.38266 14.0811 6.47018L16.53 8.91903C16.6175 9.00655 16.6667 9.12525 16.6667 9.24902V18.3891C16.6667 19.0334 16.1443 19.5557 15.5 19.5557H6.16667C5.52233 19.5557 5 19.0334 5 18.3891Z" stroke="black" stroke-width="1.16667" stroke-linecap="round" stroke-linejoin="round"/>
<path d="M13.5557 8.97794V6.60848C13.5557 6.45661 13.6788 6.3335 13.8307 6.3335C13.9036 6.3335 13.9735 6.36247 14.0251 6.41403L16.5862 8.97518C16.6378 9.02675 16.6668 9.09669 16.6668 9.16962C16.6668 9.32149 16.5437 9.44461 16.3918 9.44461H14.0223C13.7646 9.44461 13.5557 9.23567 13.5557 8.97794Z" stroke="black" stroke-width="1.16667" stroke-linecap="round" stroke-linejoin="round"/>
</svg>
