<svg width="50" height="24" viewBox="0 0 50 24" fill="none" xmlns="http://www.w3.org/2000/svg">
<path d="M11.486 17V8.404H8.28V6.99H16.344V8.404H13.152V17H11.486ZM18.905 16.006C20.123 16.006 20.613 15.25 20.739 14.816H22.209C21.845 16.174 20.781 17.21 18.947 17.21C16.721 17.21 15.363 15.67 15.363 13.43C15.363 11.106 16.721 9.65 18.877 9.65C21.187 9.65 22.321 11.26 22.321 13.808H16.833C16.833 15.012 17.603 16.006 18.905 16.006ZM18.877 10.812C17.687 10.812 16.833 11.61 16.833 12.716H20.851C20.851 11.61 20.067 10.812 18.877 10.812ZM22.5684 9.846H24.2344L25.8584 12.366H25.8864L27.5104 9.846H29.1764L26.7684 13.346L29.4424 17H27.7344L25.8864 14.312H25.8584L24.0384 17H22.3164L24.9904 13.346L22.5684 9.846ZM33.3758 11.05H32.0318V14.928C32.0318 15.74 32.4238 15.838 33.3758 15.782V16.986C33.0818 17.056 32.7598 17.098 32.3678 17.098C31.1918 17.098 30.5478 16.566 30.5478 15.054V11.05H29.5118V9.846H30.5478V7.592H32.0318V9.846H33.3758V11.05ZM37.5958 17.21C35.3558 17.21 33.9978 15.656 33.9978 13.43C33.9978 11.204 35.3558 9.65 37.5958 9.65C39.8358 9.65 41.1938 11.204 41.1938 13.43C41.1938 15.656 39.8358 17.21 37.5958 17.21ZM37.5958 16.006C38.9958 16.006 39.7238 14.9 39.7238 13.43C39.7238 11.946 38.9958 10.854 37.5958 10.854C36.1958 10.854 35.4678 11.946 35.4678 13.43C35.4678 14.9 36.1958 16.006 37.5958 16.006Z" fill="#343A40"/>
</svg>
