<svg width="24" height="24" viewBox="0 0 24 24" fill="none" xmlns="http://www.w3.org/2000/svg">
<path d="M15.7502 14C17.829 14 18.6804 16.1479 19.0241 17.696C19.2097 18.532 18.5335 19.25 17.6771 19.25H16.7502M14.7502 10.25C16.269 10.25 17.2502 9.01878 17.2502 7.5C17.2502 5.98122 16.269 4.75 14.7502 4.75M5.78188 19.25H13.2185C13.783 19.25 14.2272 18.7817 14.1147 18.2285C13.8042 16.7012 12.7899 14 9.5002 14C6.21051 14 5.19625 16.7012 4.88569 18.2285C4.7732 18.7817 5.21738 19.25 5.78188 19.25ZM12.2502 7.5C12.2502 9.01878 11.019 10.25 9.5002 10.25C7.98142 10.25 6.7502 9.01878 6.7502 7.5C6.7502 5.98122 7.98142 4.75 9.5002 4.75C11.019 4.75 12.2502 5.98122 12.2502 7.5Z" stroke="black" stroke-width="1.5" stroke-linecap="round" stroke-linejoin="round"/>
</svg>
