<svg width="45" height="34" viewBox="0 0 45 34" fill="none" xmlns="http://www.w3.org/2000/svg">
<path fill-rule="evenodd" clip-rule="evenodd" d="M34.9355 33.4428L30.7643 31.0254L29.3937 33.3179H3.43169C0.761011 33.3179 -0.882718 30.3974 0.501962 28.1137L12.8639 7.74446C14.1807 5.57338 17.3186 5.53945 18.6832 7.68124L28.7196 23.4315L31.8037 18.3192C33.0867 16.1913 36.1382 16.0942 37.5537 18.1373L44.3846 27.9981C45.9497 30.2586 44.3507 33.3487 41.6029 33.3765L35.0079 33.4428C34.9833 33.4428 34.9601 33.4428 34.9355 33.4428ZM30.4876 4.13554C30.4876 1.85189 32.2778 0 34.4843 0C36.6909 0 38.4796 1.85189 38.4796 4.13554C38.4796 6.42072 36.6909 8.27261 34.4843 8.27261C32.2778 8.27261 30.4876 6.42072 30.4876 4.13554Z" fill="#980038"/>
</svg>
