<svg width="202" height="185" viewBox="0 0 202 185" fill="none" xmlns="http://www.w3.org/2000/svg">
<path d="M89.1559 80.48H150.666C153.236 80.48 155.316 82.57 155.316 85.13V179C155.316 181.57 153.226 183.65 150.666 183.65H89.1559C86.5859 183.65 84.5059 181.56 84.5059 179V85.13C84.5059 82.56 86.5959 80.48 89.1559 80.48Z" stroke="#7E7E7E" stroke-width="1.55" stroke-linecap="round" stroke-linejoin="round"/>
<path fill-rule="evenodd" clip-rule="evenodd" d="M89.1559 80.48H150.666C153.226 80.48 155.316 82.57 155.316 85.13V179C155.316 181.56 153.226 183.65 150.666 183.65H89.1559C86.5959 183.65 84.5059 181.56 84.5059 179V85.13C84.5059 82.57 86.5959 80.48 89.1559 80.48Z" fill="white"/>
<path fill-rule="evenodd" clip-rule="evenodd" d="M91.6256 90.75H142.246C142.996 90.75 143.606 91.36 143.606 92.11C143.606 92.86 142.996 93.47 142.246 93.47H91.6256C90.8756 93.47 90.2656 92.86 90.2656 92.11C90.2656 91.36 90.8756 90.75 91.6256 90.75Z" fill="#DBDBDB"/>
<path fill-rule="evenodd" clip-rule="evenodd" d="M127.515 99.57H142.245C142.995 99.57 143.605 100.18 143.605 100.93C143.605 101.68 142.995 102.29 142.245 102.29H127.515C126.765 102.29 126.155 101.68 126.155 100.93C126.155 100.18 126.765 99.57 127.515 99.57Z" fill="#DBDBDB"/>
<path fill-rule="evenodd" clip-rule="evenodd" d="M91.6256 172.11H142.246C142.996 172.11 143.606 172.72 143.606 173.47C143.606 174.22 142.996 174.83 142.246 174.83H91.6256C90.8756 174.83 90.2656 174.22 90.2656 173.47C90.2656 172.72 90.8756 172.11 91.6256 172.11Z" fill="#DBDBDB"/>
<path fill-rule="evenodd" clip-rule="evenodd" d="M91.6256 154.47H142.246C142.996 154.47 143.606 155.08 143.606 155.83C143.606 156.58 142.996 157.19 142.246 157.19H91.6256C90.8756 157.19 90.2656 156.58 90.2656 155.83C90.2656 155.08 90.8756 154.47 91.6256 154.47Z" fill="#DBDBDB"/>
<path fill-rule="evenodd" clip-rule="evenodd" d="M127.515 163.29H142.245C142.995 163.29 143.605 163.9 143.605 164.65C143.605 165.4 142.995 166.01 142.245 166.01H127.515C126.765 166.01 126.155 165.4 126.155 164.65C126.155 163.9 126.765 163.29 127.515 163.29Z" fill="#DBDBDB"/>
<path fill-rule="evenodd" clip-rule="evenodd" d="M50.8055 47.39H119.915C124.015 47.39 127.365 50.74 127.365 54.84V164.68C127.365 168.78 124.015 172.13 119.915 172.13H50.8055C46.7055 172.13 43.3555 168.78 43.3555 164.68V54.84C43.3555 50.74 46.7055 47.39 50.8055 47.39Z" fill="#DBDBDB"/>
<path d="M58.1356 42.74H127.246C131.356 42.74 134.696 46.08 134.696 50.19V160.03C134.696 164.14 131.356 167.48 127.246 167.48H58.1356C54.0256 167.48 50.6855 164.14 50.6855 160.03V50.19C50.6855 46.08 54.0256 42.74 58.1356 42.74Z" stroke="#7E7E7E" stroke-width="1.86" stroke-linecap="round" stroke-linejoin="round"/>
<path fill-rule="evenodd" clip-rule="evenodd" d="M58.1356 42.74H127.246C131.346 42.74 134.696 46.09 134.696 50.19V160.03C134.696 164.13 131.346 167.48 127.246 167.48H58.1356C54.0356 167.48 50.6855 164.13 50.6855 160.03V50.19C50.6855 46.09 54.0356 42.74 58.1356 42.74Z" fill="white"/>
<path fill-rule="evenodd" clip-rule="evenodd" d="M64.235 55.83H121.145C121.895 55.83 122.505 56.44 122.505 57.19C122.505 57.94 121.895 58.55 121.145 58.55H64.235C63.485 58.55 62.875 57.94 62.875 57.19C62.875 56.44 63.485 55.83 64.235 55.83Z" fill="#DBDBDB"/>
<path fill-rule="evenodd" clip-rule="evenodd" d="M64.235 64.87H121.145C121.895 64.87 122.505 65.48 122.505 66.23C122.505 66.98 121.895 67.59 121.145 67.59H64.235C63.485 67.59 62.875 66.98 62.875 66.23C62.875 65.48 63.485 64.87 64.235 64.87Z" fill="#DBDBDB"/>
<path fill-rule="evenodd" clip-rule="evenodd" d="M64.235 151.9H121.145C121.895 151.9 122.505 152.51 122.505 153.26C122.505 154.01 121.895 154.62 121.145 154.62H64.235C63.485 154.62 62.875 154.01 62.875 153.26C62.875 152.51 63.485 151.9 64.235 151.9Z" fill="#DBDBDB"/>
<path fill-rule="evenodd" clip-rule="evenodd" d="M64.235 134.26H121.145C121.895 134.26 122.505 134.87 122.505 135.62C122.505 136.37 121.895 136.98 121.145 136.98H64.235C63.485 136.98 62.875 136.37 62.875 135.62C62.875 134.87 63.485 134.26 64.235 134.26Z" fill="#DBDBDB"/>
<path fill-rule="evenodd" clip-rule="evenodd" d="M64.235 143.08H95.815C96.565 143.08 97.175 143.69 97.175 144.44C97.175 145.19 96.565 145.8 95.815 145.8H64.235C63.485 145.8 62.875 145.19 62.875 144.44C62.875 143.69 63.485 143.08 64.235 143.08Z" fill="#DBDBDB"/>
<path fill-rule="evenodd" clip-rule="evenodd" d="M104.366 143.08H121.156C121.906 143.08 122.516 143.69 122.516 144.44C122.516 145.19 121.906 145.8 121.156 145.8H104.366C103.616 145.8 103.006 145.19 103.006 144.44C103.006 143.69 103.616 143.08 104.366 143.08Z" fill="#DBDBDB"/>
<path fill-rule="evenodd" clip-rule="evenodd" d="M121.155 125.45H89.5748C88.8248 125.45 88.2148 126.06 88.2148 126.81C88.2148 127.56 88.8248 128.17 89.5748 128.17H121.155C121.905 128.17 122.515 127.56 122.515 126.81C122.515 126.06 121.905 125.45 121.155 125.45Z" fill="#DBDBDB"/>
<path fill-rule="evenodd" clip-rule="evenodd" d="M81.025 125.45H64.235C63.485 125.45 62.875 126.06 62.875 126.81C62.875 127.56 63.485 128.17 64.235 128.17H81.025C81.775 128.17 82.385 127.56 82.385 126.81C82.385 126.06 81.775 125.45 81.025 125.45Z" fill="#DBDBDB"/>
<path d="M119.725 76.61H65.6648C65.2148 76.61 64.8048 76.79 64.5148 77.08C64.2248 77.38 64.0448 77.78 64.0448 78.23V114.8C64.0448 115.25 64.2248 115.66 64.5148 115.95C64.8048 116.25 65.2148 116.43 65.6648 116.43H119.725C120.175 116.43 120.585 116.25 120.875 115.96C121.165 115.66 121.345 115.26 121.345 114.81V78.24C121.345 77.79 121.165 77.38 120.875 77.09C120.585 76.79 120.175 76.61 119.725 76.61ZM65.6648 74.28H119.725C120.805 74.28 121.795 74.72 122.515 75.44C123.235 76.16 123.675 77.15 123.675 78.23V114.8C123.675 115.88 123.235 116.87 122.515 117.59C121.795 118.31 120.805 118.75 119.725 118.75H65.6648C64.5848 118.75 63.5948 118.31 62.8748 117.59C62.1548 116.87 61.7148 115.88 61.7148 114.8V78.23C61.7148 77.15 62.1548 76.16 62.8748 75.44C63.5948 74.72 64.5848 74.28 65.6648 74.28Z" fill="#DBDBDB"/>
<path fill-rule="evenodd" clip-rule="evenodd" d="M86.6659 84.49C88.2759 84.49 89.5759 85.79 89.5759 87.4C89.5759 89.01 88.2759 90.31 86.6659 90.31C85.0559 90.31 83.7559 89.01 83.7559 87.4C83.7559 85.79 85.0559 84.49 86.6659 84.49Z" fill="#656565"/>
<path fill-rule="evenodd" clip-rule="evenodd" d="M104.855 87.77C106.465 87.77 107.765 89.07 107.765 90.68C107.765 92.29 106.465 93.59 104.855 93.59C103.245 93.59 101.945 92.29 101.945 90.68C101.945 89.07 103.245 87.77 104.855 87.77Z" fill="#656565"/>
<path d="M80.926 104.23C80.206 104.54 79.376 104.2 79.066 103.48C78.756 102.76 79.096 101.93 79.816 101.62C85.056 99.38 90.336 99.23 94.876 100.56C99.816 102.01 103.876 105.23 106.026 109.44C106.386 110.14 106.106 110.99 105.406 111.34C104.706 111.7 103.856 111.42 103.506 110.72C101.716 107.21 98.286 104.51 94.076 103.27C90.136 102.11 85.526 102.25 80.926 104.22" fill="#656565"/>
<path d="M147.905 143.22L130.325 125.12C129.445 124.21 128.265 123.74 127.085 123.72C125.905 123.7 124.725 124.13 123.815 125L123.795 125.02C122.885 125.91 122.415 127.08 122.405 128.27C122.385 129.44 122.815 130.62 123.675 131.53L123.695 131.55L141.275 149.65C142.155 150.56 143.335 151.03 144.515 151.04C145.685 151.06 146.865 150.63 147.775 149.77L147.795 149.75C148.705 148.87 149.175 147.69 149.195 146.51C149.215 145.33 148.785 144.13 147.895 143.22M110.595 72.05C110.345 71.91 110.255 71.6 110.395 71.35C110.535 71.1 110.845 71.01 111.095 71.15C112.375 71.86 113.605 72.66 114.755 73.54C115.915 74.42 117.005 75.39 118.025 76.44C120.105 78.58 121.845 81.02 123.185 83.65C124.525 86.28 125.475 89.11 125.985 92.06C126.035 92.34 125.845 92.61 125.565 92.66C125.285 92.71 125.015 92.52 124.965 92.24C124.475 89.4 123.555 86.67 122.265 84.13C120.975 81.59 119.295 79.24 117.295 77.17C116.315 76.16 115.255 75.22 114.145 74.37C113.025 73.51 111.845 72.74 110.615 72.06L110.595 72.05ZM131.075 124.4L148.655 142.5C149.735 143.62 150.265 145.07 150.245 146.52C150.225 147.97 149.655 149.41 148.545 150.49L148.505 150.52C147.395 151.58 145.955 152.1 144.515 152.08C143.065 152.06 141.625 151.49 140.545 150.37L122.975 132.27L122.945 132.24C121.885 131.13 121.365 129.68 121.385 128.25C121.405 126.96 121.855 125.68 122.735 124.65L117.035 118.78C111.205 124.25 103.725 126.92 96.2951 126.81C88.6951 126.7 81.1451 123.69 75.4351 117.81L75.3951 117.77C69.7051 111.89 66.9351 104.27 67.0451 96.69C67.1551 89.09 70.1651 81.54 76.0451 75.83L76.0852 75.79C80.1352 71.87 85.1351 69.26 90.4351 68.11C95.7551 66.96 101.395 67.26 106.725 69.17C106.995 69.27 107.135 69.56 107.035 69.83C106.935 70.1 106.645 70.24 106.375 70.14C101.235 68.3 95.7851 68.01 90.6551 69.12C85.5351 70.23 80.7051 72.75 76.7951 76.54L76.7752 76.56C71.0952 82.07 68.1952 89.37 68.0852 96.7C67.9752 104.02 70.6651 111.39 76.1551 117.06L76.1751 117.08C81.6851 122.76 88.9751 125.66 96.3151 125.77C103.635 125.88 111.005 123.19 116.675 117.7L116.695 117.68V117.66C119.595 114.84 121.835 111.46 123.305 107.79C124.785 104.1 125.495 100.11 125.345 96.06C125.335 95.78 125.555 95.54 125.845 95.53C126.125 95.53 126.365 95.74 126.375 96.03C126.535 100.23 125.795 104.37 124.265 108.18C122.795 111.84 120.595 115.21 117.755 118.06L123.455 123.93C124.505 123.08 125.805 122.66 127.085 122.68C128.535 122.7 129.975 123.27 131.055 124.39L131.075 124.4Z" fill="#656565"/>
<path d="M147.915 143.22L130.335 125.12C129.455 124.21 128.275 123.74 127.095 123.72C125.915 123.7 124.735 124.13 123.825 125L123.805 125.02C122.895 125.91 122.425 127.08 122.415 128.27C122.395 129.44 122.825 130.62 123.685 131.53L123.705 131.55L141.285 149.65C142.165 150.56 143.345 151.03 144.525 151.04C145.695 151.06 146.875 150.63 147.785 149.77L147.805 149.75C148.715 148.87 149.185 147.69 149.205 146.51C149.225 145.33 148.795 144.13 147.905 143.22" fill="white"/>
<path d="M18.4258 155.03C18.4258 163.6 28.8458 162.32 28.8458 155.66C28.8458 149 18.4258 149.4 18.4258 155.03ZM22.7258 152.17C27.5458 150.66 29.2658 158.21 24.6558 159.42C20.8458 160.42 18.7258 156.52 20.3458 153.81C20.9858 152.74 21.5958 152.52 22.7158 152.17H22.7258Z" fill="#D5D5D5"/>
<path d="M74.3053 1.12L77.8153 4.87L74.1553 7.95L75.4453 9.37L78.9253 6.03L82.4353 9.78L83.6053 8.67L80.0853 4.92L83.7453 1.84L82.4553 0.410004L78.9753 3.76L75.4653 0L74.3053 1.12Z" fill="#D5D5D5"/>
<path d="M31.6152 40.69C33.0052 41.93 41.3352 43.04 43.3452 44.38C43.5652 43.2 40.3952 33.58 39.6652 32.66C38.4452 33.81 37.5752 35.08 35.9852 36.57C34.5252 37.94 33.0752 39.32 31.6252 40.69M33.8552 40.31L39.3652 35.11C40.5352 37.12 40.6652 40.32 41.8352 42.33C40.8652 42.45 38.9852 41.69 37.8452 41.41C36.4552 41.07 35.1852 40.77 33.8552 40.32V40.31Z" fill="#D5D5D5"/>
<path d="M4.83543 94.77H0.81543V96.03H4.83543V100.05H6.09543V96.03H9.86543V94.77H6.09543V90.75H4.83543V94.77Z" fill="#D5D5D5"/>
<path d="M152.045 44.3C153.045 45.19 159.045 46 160.495 46.95C160.655 46.1 158.375 39.17 157.845 38.51C156.965 39.34 156.335 40.25 155.195 41.33C154.145 42.32 153.105 43.31 152.055 44.3M153.655 44.02L157.625 40.27C158.465 41.72 158.565 44.02 159.405 45.47C158.705 45.56 157.355 45.01 156.525 44.81C155.525 44.56 154.615 44.35 153.655 44.02Z" fill="#D5D5D5"/>
<path d="M193.675 89.11L196.475 92.1L193.565 94.54L194.585 95.68L197.355 93.02L200.155 96L201.075 95.12L198.285 92.13L201.185 89.68L200.165 88.55L197.395 91.21L194.595 88.22L193.675 89.11Z" fill="#D5D5D5"/>
<path d="M162.655 143.78L164.855 146.13L162.565 148.06L163.375 148.95L165.555 146.86L167.755 149.21L168.485 148.51L166.285 146.16L168.575 144.23L167.765 143.34L165.585 145.43L163.385 143.08L162.655 143.78Z" fill="#D5D5D5"/>
<circle cx="97" cy="97" r="29" stroke="#7C7C7C" stroke-width="2"/>
</svg>
